<svg width="32" height="32" viewBox="0 0 32 32" fill="none" xmlns="http://www.w3.org/2000/svg">
<rect width="32" height="32" fill="#E5E5E5"/>
<g clip-path="url(#clip0)">
<rect width="1250" height="1059" transform="translate(-1168 -135)" fill="#F7FBFE"/>
<g filter="url(#filter0_d)">
<rect x="-1083" y="-50" width="1080" height="1105" rx="20" fill="white"/>
</g>
<rect opacity="0.5" x="-1168" y="-135" width="1250" height="1059" fill="black"/>
<g filter="url(#filter1_d)">
<rect x="-303" y="-135" width="385" height="1059" fill="white"/>
</g>
<rect x="-272.5" y="-43.5" width="324" height="118" rx="19.5" fill="white" stroke="#F3F3F3"/>
<rect x="0.5" y="0.5" width="31" height="31" rx="7.5" fill="white" stroke="#DBDBDB"/>
<path d="M20.0799 18.6155L17.6311 16.1667L20.0798 13.718C21.0241 12.7738 19.5596 11.3093 18.6154 12.2536L16.1667 14.7023L13.7179 12.2535C12.7738 11.3095 11.3095 12.7738 12.2535 13.7179L14.7023 16.1667L12.2536 18.6154C11.3093 19.5596 12.7738 21.0241 13.718 20.0798L16.1667 17.6311L18.6155 20.0799C19.5597 21.0241 21.0241 19.5597 20.0799 18.6155Z" fill="#B5B5B5"/>
</g>
<defs>
<filter id="filter0_d" x="-1103" y="-60" width="1120" height="1145" filterUnits="userSpaceOnUse" color-interpolation-filters="sRGB">
<feFlood flood-opacity="0" result="BackgroundImageFix"/>
<feColorMatrix in="SourceAlpha" type="matrix" values="0 0 0 0 0 0 0 0 0 0 0 0 0 0 0 0 0 0 127 0"/>
<feOffset dy="10"/>
<feGaussianBlur stdDeviation="10"/>
<feColorMatrix type="matrix" values="0 0 0 0 0 0 0 0 0 0 0 0 0 0 0 0 0 0 0.02 0"/>
<feBlend mode="normal" in2="BackgroundImageFix" result="effect1_dropShadow"/>
<feBlend mode="normal" in="SourceGraphic" in2="effect1_dropShadow" result="shape"/>
</filter>
<filter id="filter1_d" x="-337" y="-155" width="433" height="1107" filterUnits="userSpaceOnUse" color-interpolation-filters="sRGB">
<feFlood flood-opacity="0" result="BackgroundImageFix"/>
<feColorMatrix in="SourceAlpha" type="matrix" values="0 0 0 0 0 0 0 0 0 0 0 0 0 0 0 0 0 0 127 0"/>
<feOffset dx="-10" dy="4"/>
<feGaussianBlur stdDeviation="12"/>
<feColorMatrix type="matrix" values="0 0 0 0 0 0 0 0 0 0 0 0 0 0 0 0 0 0 0.1 0"/>
<feBlend mode="normal" in2="BackgroundImageFix" result="effect1_dropShadow"/>
<feBlend mode="normal" in="SourceGraphic" in2="effect1_dropShadow" result="shape"/>
</filter>
<clipPath id="clip0">
<rect width="1250" height="1059" fill="white" transform="translate(-1168 -135)"/>
</clipPath>
</defs>
</svg>
